<svg width="67" height="100" viewBox="0 0 67 100" fill="none" xmlns="http://www.w3.org/2000/svg">
<path d="M16.6667 100C25.8667 100 33.3333 92.5336 33.3333 83.3336V66.667H16.6667C7.46667 66.667 0 74.1336 0 83.3336C0 92.5336 7.46667 100 16.6667 100Z" fill="#0ACF83"/>
<path d="M0 49.9996C0 40.7997 7.46667 33.333 16.6667 33.333H33.3333V66.6663H16.6667C7.46667 66.6663 0 59.1996 0 49.9996Z" fill="#A259FF"/>
<path d="M0 16.6667C0 7.46666 7.46667 0 16.6667 0H33.3333V33.3333H16.6667C7.46667 33.3333 0 25.8667 0 16.6667Z" fill="#F24E1E"/>
<path d="M33.333 0H49.9997C59.1997 0 66.6664 7.46666 66.6664 16.6667C66.6664 25.8667 59.1997 33.3333 49.9997 33.3333H33.333V0Z" fill="#FF7262"/>
<path d="M66.6664 49.9996C66.6664 59.1996 59.1997 66.6663 49.9997 66.6663C40.7997 66.6663 33.333 59.1996 33.333 49.9996C33.333 40.7997 40.7997 33.333 49.9997 33.333C59.1997 33.333 66.6664 40.7997 66.6664 49.9996Z" fill="#1ABCFE"/>
</svg>
